<svg width="317" height="116" viewBox="0 0 317 116" fill="none" xmlns="http://www.w3.org/2000/svg">
<g clip-path="url(#clip0_201_3)">
<path d="M207.6 31.3902C207.677 31.3452 207.74 31.281 207.785 31.2038C207.829 31.1266 207.852 31.0392 207.852 30.9502C207.852 30.8613 207.829 30.7739 207.785 30.6967C207.74 30.6195 207.677 30.5552 207.6 30.5102C205.396 29.2598 203.044 28.289 200.6 27.6202C194.694 25.9654 188.405 26.3171 182.72 28.6202C176.87 30.9802 172.82 32.5402 170.41 34.4602C169.297 35.2656 168.446 36.3805 167.962 37.6661C167.479 38.9517 167.384 40.3512 167.69 41.6902C167.8 42.0676 168.024 42.4014 168.333 42.6452C168.641 42.8889 169.017 43.0305 169.41 43.0502C172.522 42.9326 175.592 42.2902 178.49 41.1502C183.26 39.1502 186.32 37.5502 188.29 36.7002C188.403 36.655 188.529 36.6511 188.645 36.6892C188.761 36.7274 188.86 36.8052 188.925 36.909C188.989 37.0127 189.015 37.1359 188.997 37.2568C188.98 37.3777 188.921 37.4887 188.83 37.5702L188.59 37.7702C185.748 40.1209 182.615 42.097 179.27 43.6502C176.361 45.0052 173.148 45.5774 169.95 45.3102C169.18 45.2202 168.72 45.7402 169.02 46.4502C171.92 53.1502 178.87 59.7202 189.7 49.6902C192.442 47.1334 194.986 44.3721 197.31 41.4302C199.49 38.8102 201.39 36.6602 203.01 35.0802C204.424 33.7125 205.96 32.4773 207.6 31.3902Z" fill="url(#paint0_linear_201_3)"/>
<path d="M193.97 7.25011C194.018 7.17562 194.047 7.09 194.053 7.00139C194.059 6.91279 194.042 6.82416 194.003 6.74396C193.965 6.66375 193.907 6.59463 193.835 6.54319C193.763 6.49176 193.678 6.45971 193.59 6.45011C191.068 6.19536 188.525 6.26256 186.02 6.65011C179.931 7.53271 174.305 10.4054 170.02 14.8201C165.58 19.3501 162.48 22.4201 161.02 25.1601C160.312 26.3403 159.968 27.703 160.03 29.0779C160.092 30.4527 160.558 31.7787 161.37 32.8901C161.621 33.2106 161.97 33.4398 162.364 33.5428C162.758 33.6458 163.174 33.6167 163.55 33.4601C166.362 32.0935 168.924 30.2648 171.13 28.0501C174.73 24.3201 176.89 21.5801 178.36 20.0501V20.0001C178.437 19.8887 178.555 19.8124 178.688 19.7881C178.821 19.7637 178.959 19.7932 179.07 19.8701C179.181 19.947 179.258 20.065 179.282 20.1982C179.306 20.3313 179.277 20.4687 179.2 20.5801L179.05 20.8601C177.379 24.1709 175.288 27.2529 172.83 30.0301C170.701 32.4517 167.978 34.2781 164.93 35.3301C164.19 35.5701 163.93 36.2301 164.53 36.7601C169.83 41.7601 178.78 44.9301 184.77 31.3401C186.272 27.8838 187.516 24.3206 188.49 20.6801C189.263 17.9261 190.175 15.2127 191.22 12.5501C191.967 10.7003 192.888 8.92569 193.97 7.25011Z" fill="#9DFF5E"/>
<path d="M160.76 0.349797C160.751 0.281463 160.724 0.216725 160.682 0.16187C160.64 0.107016 160.585 0.0639091 160.521 0.0367367C160.458 0.00956425 160.389 -0.000750327 160.32 0.00679466C160.251 0.0143396 160.186 0.0394878 160.13 0.0797966C158.511 1.26669 157.044 2.64692 155.76 4.1898C152.623 7.92332 150.778 12.5713 150.5 17.4398C150.19 22.4398 149.94 25.9098 150.5 28.2898C150.677 29.3506 151.168 30.3339 151.91 31.1128C152.651 31.8918 153.609 32.4306 154.66 32.6598C154.974 32.7132 155.297 32.663 155.58 32.517C155.863 32.3709 156.091 32.1367 156.23 31.8498C157.186 29.5627 157.757 27.1332 157.92 24.6598C158.14 20.5598 158.02 17.7998 158.08 16.0998V16.0498C158.077 15.9504 158.111 15.8535 158.176 15.7779C158.24 15.7023 158.331 15.6536 158.43 15.6411C158.528 15.6286 158.628 15.6533 158.709 15.7104C158.791 15.7674 158.848 15.8528 158.87 15.9498L158.93 16.1898C159.628 19.0361 159.964 21.9593 159.93 24.8898C159.892 27.4501 159.204 29.9587 157.93 32.1798C157.62 32.7098 157.82 33.1798 158.42 33.1798C164.09 33.3198 171.01 30.4898 167.6 19.3098C166.719 16.4842 165.633 13.7268 164.35 11.0598C163.24 8.6098 162.35 6.5198 161.8 4.8198C161.321 3.36384 160.973 1.86786 160.76 0.349797Z" fill="#6AFF8F"/>
<path d="M253.82 56.3698C253.784 56.329 253.75 56.2855 253.72 56.2398C253.78 55.9198 253.84 55.6098 253.91 55.2998C253.87 55.6498 253.83 56.0498 253.82 56.3698Z" stroke="#0A0404" stroke-miterlimit="10"/>
<path d="M15.71 61.47L0 20.71H6.71L14.19 40.78C16.24 46.29 18.02 51.25 19.3 56.05H19.44C20.8 51.34 22.79 46.2 24.93 40.88L33.05 20.74H39.71L22.51 61.47H15.71Z" fill="#2070E5"/>
<path d="M45.8 47.7998C45.94 54.9998 51.36 57.9598 57.63 57.9598C60.8759 58.0495 64.1104 57.5375 67.17 56.4498L68.24 60.2598C64.5554 61.5412 60.6698 62.1476 56.77 62.0498C46.16 62.0498 39.77 56.1198 39.77 47.2998C39.77 38.4798 45.89 31.5098 55.94 31.5098C67.2 31.5098 70.19 39.9198 70.19 45.2998C70.1824 46.131 70.1089 46.9602 69.97 47.7798L45.8 47.7998ZM64.18 43.9898C64.25 40.5998 62.54 35.3398 55.49 35.3398C49.15 35.3398 46.37 40.3398 45.87 43.9898H64.18Z" fill="#2070E5"/>
<path d="M78 41.3299C78 37.8799 77.93 34.9199 77.71 32.1999H83.2L83.41 37.9399H83.71C84.4717 36.0365 85.7894 34.4067 87.4912 33.2633C89.193 32.1199 91.1998 31.5158 93.25 31.5299C93.8515 31.5224 94.452 31.5828 95.04 31.7099V36.7099C94.334 36.5818 93.6174 36.5215 92.9 36.5299C90.9121 36.4768 88.9709 37.1375 87.4281 38.3923C85.8853 39.647 84.843 41.4129 84.49 43.3699C84.3175 44.1823 84.2237 45.0095 84.21 45.8399V61.4699H78.01L78 41.3299Z" fill="#2070E5"/>
<path d="M130.36 18.5298V53.9098C130.36 56.5098 130.43 59.4698 130.65 61.4698H125.02L124.71 56.3898H124.57C122.65 59.6498 118.44 62.1298 112.81 62.1298C104.48 62.1298 98.07 56.1298 98.07 47.2598C98 37.5198 105.12 31.5298 113.53 31.5298C118.8 31.5298 122.36 33.6498 123.93 36.0098H124.07V18.5298H130.36ZM124.09 44.1098C124.1 43.3538 124.006 42.6001 123.81 41.8698C122.88 38.4898 119.46 35.7098 114.81 35.7098C108.32 35.7098 104.48 40.5398 104.48 47.0098C104.48 52.9398 107.9 57.8398 114.67 57.8398C118.87 57.8398 122.67 55.4798 123.86 51.4898C124.064 50.7406 124.158 49.9659 124.14 49.1898L124.09 44.1098Z" fill="#2070E5"/>
<path d="M144.25 47.7998C144.39 54.9998 149.81 57.9598 156.07 57.9598C159.319 58.0493 162.557 57.5374 165.62 56.4498L166.71 60.2598C163.019 61.5436 159.127 62.15 155.22 62.0498C144.6 62.0498 138.22 56.1198 138.22 47.2998C138.22 38.4798 144.35 31.5098 154.4 31.5098C165.71 31.5298 168.71 39.9398 168.71 45.3198C168.7 46.1504 168.629 46.9792 168.5 47.7998H144.25ZM162.63 43.9898C162.7 40.5998 160.99 35.3398 153.94 35.3398C147.6 35.3398 144.82 40.3398 144.32 43.9898H162.63Z" fill="#2070E5"/>
<path d="M108.14 74.1802V98.3002C108.14 107.44 112.92 111.3 119.33 111.3C126.45 111.3 131.01 107.3 131.01 98.3002V74.1802H137.28V97.9402C137.28 110.46 129.52 115.6 119.12 115.6C109.28 115.6 101.87 110.82 101.87 98.1802V74.1802H108.14Z" fill="#9D9FA0"/>
<path d="M147.82 94.7998C147.82 91.3498 147.75 88.3898 147.54 85.6698H153.02L153.24 91.4098H153.52C154.29 89.5141 155.613 87.8939 157.316 86.7597C159.019 85.6255 161.024 85.0297 163.07 85.0498C163.668 85.0431 164.265 85.1035 164.85 85.2298V90.2298C164.144 90.1009 163.427 90.0406 162.71 90.0498C160.724 89.9963 158.784 90.6556 157.241 91.9084C155.698 93.1611 154.655 94.9246 154.3 96.8798C154.128 97.6957 154.034 98.5261 154.02 99.3598V114.96H147.82V94.7998Z" fill="#9D9FA0"/>
<path d="M171.11 114.93C171.26 112.93 171.4 109.93 171.4 107.38V72.0498H177.6V90.3798H177.71C179.92 87.1198 183.91 84.9998 189.47 84.9998C198.01 84.9998 204.07 90.9998 204 99.9398C204 110.4 196.23 115.6 188.54 115.6C183.54 115.6 179.54 113.97 177 110.1H176.78L176.5 114.93H171.11ZM177.6 103.2C177.62 103.855 177.714 104.506 177.88 105.14C179.09 108.83 182.73 111.37 187.29 111.37C193.84 111.37 197.76 106.83 197.76 100.12C197.76 94.2498 194.2 89.2298 187.5 89.2298C185.422 89.1672 183.377 89.7657 181.661 90.9392C179.945 92.1127 178.646 93.8006 177.95 95.7598C177.746 96.4698 177.629 97.2017 177.6 97.9398V103.2Z" fill="#9D9FA0"/>
<path d="M231.02 114.93L230.53 111.25H230.31C228.967 112.688 227.331 113.82 225.513 114.571C223.694 115.321 221.736 115.672 219.77 115.6C212.77 115.6 209.22 111.43 209.22 107.19C209.22 100.12 216.63 96.25 229.96 96.31V95.7C229.96 93.29 229.17 88.9299 222.12 88.9299C218.988 88.9234 215.901 89.6712 213.12 91.11L211.71 87.6C215.226 85.849 219.113 84.9741 223.04 85.05C233.59 85.05 236.15 91.16 236.15 97.05V108.05C236.109 110.396 236.3 112.741 236.72 115.05L231.02 114.93ZM230.1 100.05C223.26 99.93 215.49 100.95 215.49 106.64C215.49 110.09 218.2 111.72 221.41 111.72C225.89 111.72 228.75 109.3 229.74 106.82C229.964 106.284 230.086 105.711 230.1 105.13V100.05Z" fill="#9D9FA0"/>
<path d="M246.27 93.5898C246.27 90.5898 246.2 88.0898 245.98 85.6698H251.54L251.9 90.4998H252.04C253.71 87.7198 257.71 85.0498 263.44 85.0498C268.21 85.0498 275.62 87.4698 275.62 97.5098V114.98H269.35V98.0498C269.35 93.3398 267.28 89.4098 261.35 89.4098C259.561 89.3525 257.797 89.8426 256.294 90.8148C254.792 91.7869 253.621 93.1946 252.94 94.8498C252.644 95.6424 252.501 96.484 252.52 97.3298V114.92H246.25L246.27 93.5898Z" fill="#9D9FA0"/>
<path d="M317.01 100.05C317.01 110.87 308.17 115.59 299.84 115.59C290.5 115.59 283.31 109.78 283.31 100.53C283.31 90.7402 290.86 84.9902 300.41 84.9902C310.31 85.0502 317.01 91.1102 317.01 100.05ZM289.65 100.35C289.65 106.76 294 111.6 300.12 111.6C306.24 111.6 310.59 106.82 310.59 100.23C310.59 95.2302 307.67 88.9802 300.26 88.9802C292.85 88.9802 289.65 94.8002 289.65 100.36V100.35Z" fill="#9D9FA0"/>
</g>
<defs>
<linearGradient id="paint0_linear_201_3" x1="167.51" y1="40.7302" x2="207.84" y2="40.7302" gradientUnits="userSpaceOnUse">
<stop stop-color="#006837"/>
<stop offset="0.44" stop-color="#7AC943"/>
</linearGradient>
<clipPath id="clip0_201_3">
<rect width="317.01" height="115.6" fill="white"/>
</clipPath>
</defs>
</svg>
